<svg width="177" height="168" viewBox="0 0 177 168" fill="none" xmlns="http://www.w3.org/2000/svg">
<path d="M134.059 123.917C133.531 126.024 133.25 128.229 133.25 130.5C133.25 133.66 133.795 136.692 134.792 139.51C134.427 139.839 134.052 140.16 133.668 140.469C129.785 143.594 124.397 146.231 117.97 148.373C112.292 150.266 105.784 151.775 98.7686 152.874C99.0839 151.13 99.25 149.335 99.25 147.5C99.25 145.875 99.1197 144.281 98.8711 142.727C104.751 141.735 110.14 140.442 114.808 138.886C120.617 136.949 124.785 134.781 127.398 132.678C130.058 130.537 130.5 128.997 130.5 128.25V120.585L134.059 123.917Z" fill="#1A70E0"/>
<path fill-rule="evenodd" clip-rule="evenodd" d="M70.25 0C88.6561 0 105.527 2.47947 117.97 6.62695C124.165 8.69192 129.539 11.2609 133.467 14.3564C137.338 17.4077 140.5 21.5583 140.5 26.75V65.374C137.636 62.4948 134.252 60.1331 130.5 58.4424V41.2139C126.995 43.4031 122.725 45.288 117.97 46.873C105.527 51.0205 88.6561 53.5 70.25 53.5C51.8439 53.5 34.9728 51.0205 22.5303 46.873C17.7751 45.288 13.5051 43.4031 10 41.2139V77.5C10 78.2471 10.4421 79.7875 13.1016 81.9277C15.715 84.0309 19.8828 86.1992 25.6924 88.1357C37.2787 91.9978 53.3105 94.25 70.25 94.25C74.7843 94.25 79.2535 94.0868 83.5898 93.7764C84.0846 97.2419 85.1084 100.536 86.5791 103.575C81.263 104.021 75.7815 104.25 70.25 104.25C52.5788 104.25 35.4174 101.919 22.5303 97.623C17.7008 96.0132 13.4583 94.1235 10 91.958V128.25C10 128.997 10.4421 130.537 13.1016 132.678C15.715 134.781 19.8828 136.949 25.6924 138.886C29.8409 140.269 34.5596 141.443 39.6855 142.384C39.3998 144.046 39.25 145.756 39.25 147.5C39.25 149.217 39.3959 150.899 39.6729 152.537C33.4417 151.474 27.6487 150.079 22.5303 148.373C16.1032 146.231 10.715 143.594 6.83203 140.469C2.99524 137.381 0 133.271 0 128.25V26.75C0 21.5583 3.16151 17.4077 7.0332 14.3564C10.9612 11.2609 16.3354 8.69192 22.5303 6.62695C34.9728 2.47947 51.8439 0 70.25 0ZM70.25 10C52.6196 10 36.8657 12.3898 25.6924 16.1143C20.0797 17.9852 15.8982 20.1024 13.2227 22.2109C10.4907 24.364 10 25.9356 10 26.75C10 27.5644 10.4907 29.136 13.2227 31.2891C15.8982 33.3976 20.0797 35.5148 25.6924 37.3857C36.8657 41.1102 52.6196 43.5 70.25 43.5C87.8804 43.5 103.634 41.1102 114.808 37.3857C120.42 35.5148 124.602 33.3976 127.277 31.2891C130.009 29.136 130.5 27.5644 130.5 26.75C130.5 25.9356 130.009 24.364 127.277 22.2109C124.602 20.1024 120.42 17.9852 114.808 16.1143C103.634 12.3898 87.8804 10 70.25 10Z" fill="#1A70E0"/>
<path d="M84.5269 134.105C83.0739 132.447 81.353 131.03 79.4317 129.921C76.4742 128.214 73.042 127.237 69.3816 127.237C58.2632 127.237 49.25 136.25 49.25 147.368C49.25 158.487 58.2632 167.5 69.3816 167.5C80.4999 167.5 89.5132 158.487 89.5132 147.368C89.5132 142.288 87.6314 137.648 84.5269 134.105Z" fill="#1A70E0"/>
<path d="M145.85 121.535C144.171 124.148 143.197 127.256 143.197 130.592C143.197 139.857 150.708 147.368 159.974 147.368C169.239 147.368 176.75 139.857 176.75 130.592C176.75 121.327 169.239 113.816 159.974 113.816C156.462 113.816 153.202 114.895 150.508 116.739C148.653 118.009 147.066 119.642 145.85 121.535Z" fill="#1A70E0"/>
<path d="M131.427 107.543L145.85 121.535C147.066 119.642 148.653 118.009 150.508 116.739L136.036 102.783C134.731 104.578 133.178 106.182 131.427 107.543Z" fill="#1A70E0"/>
<path d="M131.427 107.543C133.178 106.182 134.731 104.578 136.036 102.783C138.852 98.9094 140.513 94.1421 140.513 88.9868C140.513 76.0154 129.998 65.5 117.026 65.5C104.055 65.5 93.5395 76.0154 93.5395 88.9868C93.5395 95.1373 95.9036 100.736 99.7726 104.923C101.285 106.559 103.027 107.98 104.947 109.134C108.477 111.254 112.609 112.474 117.026 112.474C122.453 112.474 127.45 110.633 131.427 107.543Z" fill="#1A70E0"/>
<path d="M104.947 109.134L84.5269 134.105C83.0739 132.447 81.353 131.03 79.4317 129.921L99.7726 104.923C101.285 106.559 103.027 107.98 104.947 109.134Z" fill="#1A70E0"/>
</svg>
